# xmcd
#
# Track frame offsets: 
#        150
#        13334
#        27464
#        40048
#        54675
#        68598
#        80418
#        94915
#        108941
#        122027
#        134766
#        148656
#        164201
#        179428
#        193770
#        206785
#        220125
#        233335
#        246366
#        259705
#
# Disc length: 3643 seconds
#
# Revision: 0
# Processed by: cddbd v1.5.2PL0 Copyright (c) Steve Scherf et al.
# Submitted via: ExactAudioCopy v0.99pb5
#
DISCID=2f0e3914
DTITLE=Various Artist - The Essential Charlie Poole CD 02- Old and Only In The 
DTITLE=Way
DYEAR=2009
DGENRE=Country
TTITLE0=Charlie Poole and The North Carolina Ramblers - You Ain't Talkin
TTITLE0=' To Me
TTITLE1=Charlie Poole and The North Carolina Ramblers - Coon From Tennes
TTITLE1=see
TTITLE2=Charlie Poole and The North Carolina Ramblers - The Letter That 
TTITLE2=Never Came
TTITLE3=Charlie Poole and The North Carolina Ramblers - Take A Drink On 
TTITLE3=Me
TTITLE4=Charlie Poole and The North Carolina Ramblers - Falling By The W
TTITLE4=ayside
TTITLE5=Charlie Poole and The North Carolina Ramblers - Sunset March
TTITLE6=Charlie Poole and The North Carolina Ramblers - Don't Let Your D
TTITLE6=eal Go Down Medley
TTITLE7=Charlie Poole and The North Carolina Ramblers - A Young Boy Left
TTITLE7=His Home One Day
TTITLE8=Charlie Poole and The North Carolina Ramblers - My Wife Went Awa
TTITLE8=y And Left Me
TTITLE9=Charlie Poole and The North Carolina Ramblers - Husband and Wife W
TTITLE9=ere Angry One Night
TTITLE10=Charlie Poole and The North Carolina Ramblers - Ramblin' Blues
TTITLE11=Charlie Poole and The North Carolina Ramblers - Old And Only In
TTITLE11=The Way
TTITLE12=Charlie Poole and The North Carolina Ramblers - Shootin' Creek
TTITLE13=Charlie Poole and The North Carolina Ramblers - Baltimore Fire
TTITLE14=Charlie Poole and The North Carolina Ramblers - Sweet Sunny Sou
TTITLE14=th
TTITLE15=Charlie Poole and The North Carolina Ramblers - He Rambled
TTITLE16=The Higlanders - Under The Double Eagle
TTITLE17=The Higlanders - Richmond Square
TTITLE18=The Higlanders - Flop Eared Mule
TTITLE19=The Higlanders - Lynchburg Town
EXTD=
EXTT0=
EXTT1=
EXTT2=
EXTT3=
EXTT4=
EXTT5=
EXTT6=
EXTT7=
EXTT8=
EXTT9=
EXTT10=
EXTT11=
EXTT12=
EXTT13=
EXTT14=
EXTT15=
EXTT16=
EXTT17=
EXTT18=
EXTT19=
PLAYORDER=
